PathFileType	4	(X/Y/Z)	C:\Users\WrightLab\Desktop\Jo\P2_Trial31.trc
DataRate	CameraRate	NumFrames	NumMarkers	Units	OrigDataRate	OrigDataStartFrame	OrigNumFrames
100.00	100.00	       70	19	mm	100.00	1	       812
Frame#	Time	Headset_Front			Headset_Back			Headset_Left			Headset_Right			Left_Shoulder			Right_Shoulder			Sternum			C7			Left Elbow			Right Elbow			Left Wrist			Right Wrist			Left ASIS			Right ASIS			S2			Left Knee			Right Knee			Left Ankle			Right Ankle			
		X1	Y1	Z1	X2	Y2	Z2	X3	Y3	Z3	X4	Y4	Z4	X5	Y5	Z5	X6	Y6	Z6	X7	Y7	Z7	X8	Y8	Z8	X9	Y9	Z9	X10	Y10	Z10	X11	Y11	Z11	X12	Y12	Z12	X13	Y13	Z13	X14	Y14	Z14	X15	Y15	Z15	X16	Y16	Z16	X17	Y17	Z17	X18	Y18	Z18	X19	Y19	Z19	

1	0.000																-13.83881	1083.43506	-1490.31409																												-86.36733	420.31430	-1458.22754				-81.75627	60.24637	-1470.29053				
2	0.010																-13.82263	1083.40039	-1489.91589																												-86.82816	419.93234	-1457.06018				-82.29858	59.78096	-1469.84863				
3	0.020																-13.18525	1082.40796	-1490.17029																												-86.71042	419.88641	-1456.34460				-82.31235	59.76081	-1469.83594				
4	0.030																-13.16554	1082.29761	-1490.16052																												-87.07167	420.07877	-1455.78381				-82.45844	59.85220	-1469.62830				
5	0.040																-13.81226	1082.39746	-1487.27600																												-88.10486	420.21289	-1454.88733				-82.47552	59.83021	-1469.61536				
6	0.050																-13.79025	1082.39124	-1486.83582																												-88.82285	420.16043	-1453.49780				-82.48289	59.79581	-1469.58679				
7	0.060																-13.77997	1082.35364	-1486.72534																												-89.62472	420.17734	-1452.85657				-82.50235	59.79212	-1469.59167				
8	0.070																-13.72123	1082.40112	-1486.23279																												-91.32489	420.38080	-1452.11243				-83.00588	59.66515	-1469.22009				
9	0.080																-14.34892	1082.37463	-1483.99634																												-91.90856	420.64093	-1451.95520				-83.01895	59.62956	-1469.19287				
10	0.090																-14.87456	1082.67969	-1482.76514																												-93.06343	420.13516	-1450.61255				-83.04138	59.59801	-1469.17334				
11	0.100																-14.82899	1082.69751	-1482.21460																												-93.29607	420.24893	-1450.48120				-83.45277	59.73372	-1469.03247				
12	0.110																-15.53106	1086.08459	-1473.32727																												-93.63863	420.43027	-1450.30249				-84.00304	59.73638	-1468.39612				
13	0.120																-15.52515	1085.73901	-1471.96509																												-94.25523	420.95859	-1450.16675				-84.25179	59.74440	-1468.76599				
14	0.130																-15.95367	1085.94958	-1470.77979																												-96.17575	420.95346	-1449.60583				-84.56042	60.08470	-1469.07153				
15	0.140																-16.03373	1086.03235	-1469.78052																												-97.56232	420.75494	-1448.63647				-84.95941	60.59195	-1468.27905				
16	0.150																-16.16500	1083.38049	-1476.58069																												-98.47993	420.05386	-1447.52368				-85.05985	60.70199	-1468.02856				
17	0.160																-16.15588	1083.46069	-1476.35266																												-99.18136	420.44339	-1447.55652				-85.07455	60.68900	-1468.02283				
18	0.170																-16.65102	1083.44727	-1474.10657																												-99.41921	420.58026	-1447.45410				-85.08558	60.70749	-1468.04456				
19	0.180																-16.61862	1083.45996	-1474.04907																												-100.22461	420.43478	-1446.95129				-85.10276	60.67580	-1468.02271				
20	0.190																-16.49575	1083.72595	-1472.93896																												-100.71522	419.87881	-1446.85449				-85.11443	60.68847	-1468.03931				
21	0.200																-16.44258	1083.82971	-1472.63281																												-101.47161	420.37335	-1445.93567				-85.12003	60.69436	-1468.04712				
22	0.210																-16.30629	1083.96362	-1471.87964																												-102.02218	420.55206	-1445.92163				-85.28031	60.87592	-1467.98352				
23	0.220																-16.21732	1084.02332	-1471.47827																												-102.69430	420.63702	-1445.49866				-85.39671	60.81651	-1468.21582				
24	0.230																-16.13197	1084.19849	-1470.74341																												-104.28036	420.07632	-1443.86084				-85.57427	60.89977	-1468.28503				
25	0.240																-16.06578	1084.41394	-1470.04883																												-104.46156	420.22333	-1443.70557				-86.31005	60.68926	-1467.75439				
26	0.250																-16.60110	1084.51196	-1467.69592																												-104.56158	420.22659	-1443.78210				-86.37157	60.65500	-1467.74878				
27	0.260																-16.52191	1084.64746	-1467.08301																												-104.62635	420.19382	-1443.97925				-86.36897	60.67342	-1467.76465				
28	0.270																-17.23064	1084.80945	-1465.32141																												-104.67790	420.06876	-1444.20947				-86.42779	60.62786	-1467.74756				
29	0.280																-17.21939	1084.91028	-1465.08630																												-104.58866	420.13257	-1444.02393				-86.42195	60.64517	-1467.76111				
30	0.290																-17.13883	1085.06543	-1464.38464																												-104.06654	420.65894	-1444.40027				-86.39281	60.67284	-1467.77417				
31	0.300																-17.60142	1085.40125	-1463.02722																												-102.60812	421.20798	-1446.07019				-86.40201	60.66053	-1467.76672				
32	0.310																-17.52078	1085.42432	-1462.49817																												-102.50380	420.74728	-1445.30835				-86.36835	60.70228	-1467.79102				
33	0.320																-17.52304	1085.41162	-1462.47498																												-101.91223	420.67078	-1445.71936				-86.33740	60.71654	-1467.79102				
34	0.330																-17.51090	1085.41052	-1462.43848																												-100.69433	420.26642	-1445.77710				-85.87974	61.08092	-1468.31689				
35	0.340																-17.48121	1085.40784	-1462.25525																												-100.25688	420.25146	-1445.19250				-85.59499	60.94653	-1468.33691				
36	0.350																-17.42215	1085.34717	-1462.12695																												-99.75665	420.73233	-1445.52368				-85.55263	60.96339	-1468.33447				
37	0.360																-17.36612	1085.02356	-1461.75818																												-99.32288	420.87357	-1444.67639				-85.50540	60.93803	-1468.29114				
38	0.370																-17.35481	1085.01379	-1461.70386																												-98.10412	420.86652	-1444.79565				-85.27229	60.89819	-1468.00061				
39	0.380																-17.22521	1085.11328	-1460.79431																												-97.52621	420.86923	-1444.26624				-85.23643	60.93259	-1468.01721				
40	0.390																-18.31443	1084.88513	-1457.97131																												-96.17434	421.01575	-1445.19946				-85.10898	60.77673	-1468.11841				
41	0.400																-18.27892	1084.77917	-1458.02295																												-95.84517	421.01855	-1444.79089				-85.09786	60.78106	-1468.11768				
42	0.410																-18.15043	1084.64368	-1457.70422																												-94.55284	421.19986	-1445.49109				-85.09055	60.77716	-1468.11096				
43	0.420																-13.48166	1084.11951	-1468.45251																												-93.69548	422.11084	-1446.33618				-85.08972	60.74869	-1468.08435				
44	0.430																-17.14133	1083.62427	-1459.63098																												-93.23080	421.98306	-1445.53259				-85.06857	60.79880	-1468.12158				
45	0.440																-17.07051	1083.53833	-1459.33435																												-93.24188	422.05838	-1445.28857				-85.07151	60.77398	-1468.09998				
46	0.450																-16.98508	1083.38086	-1459.30078																												-93.22559	422.04245	-1445.25781				-85.06297	60.81548	-1468.13452				
47	0.460																-16.95197	1083.08313	-1459.78491																												-93.19592	422.05936	-1445.09497				-85.05813	60.78946	-1468.10852				
48	0.470																-16.96102	1083.06750	-1459.77368																												-93.25371	422.12857	-1444.87476				-85.00491	61.04413	-1467.46765				
49	0.480																-16.98006	1083.03040	-1459.74011																												-93.47946	421.85806	-1443.74792				-84.99609	61.02666	-1467.44775				
50	0.490																-16.97218	1083.00671	-1459.66235																												-94.04008	421.79874	-1442.84570				-84.99944	61.01346	-1467.43701				
51	0.500																-17.68973	1082.88098	-1458.14624																												-95.22250	421.81357	-1441.48706				-84.86108	61.33984	-1466.56543				
52	0.510																-18.11610	1082.52820	-1457.28455																												-95.32307	421.92633	-1441.40393				-84.72660	61.38954	-1466.44824				
53	0.520																-18.10679	1082.19360	-1457.10583																												-96.01122	421.95200	-1440.31555				-84.73207	61.36527	-1466.42810				
54	0.530																-18.10530	1081.93982	-1457.42419																												-96.64837	422.07681	-1439.77905				-84.66434	61.48519	-1466.11218				
55	0.540																-18.11566	1081.91162	-1457.38708																												-97.49789	421.41495	-1438.27063				-84.81713	61.53387	-1466.17004				
56	0.550																-18.12648	1081.54883	-1458.19067																												-97.91354	421.42053	-1438.68042				-84.81977	61.51738	-1466.15588				
57	0.560																-18.13902	1081.35071	-1458.42078																												-98.09612	421.31625	-1438.80359				-84.67464	61.44851	-1466.08276				
58	0.570																-18.22482	1081.23523	-1458.89355																												-98.73182	421.51346	-1439.14771				-84.73530	61.61359	-1465.65881				
59	0.580																-18.27617	1080.99109	-1459.45056																												-99.18848	421.76373	-1438.57031				-84.72443	61.60153	-1465.64294				
60	0.590																-18.32525	1080.90723	-1459.72144																												-100.41806	421.28040	-1437.00659				-84.84001	61.79792	-1465.29700				
61	0.600																-18.29325	1080.68677	-1459.93262																												-100.60518	421.22607	-1437.05042				-85.24388	62.08079	-1465.02612				
62	0.610																-18.32070	1080.62549	-1460.14807																												-100.92162	421.40997	-1436.88354				-85.54411	62.02575	-1465.53040				
63	0.620																-18.25435	1080.61621	-1459.97473																												-101.07687	421.49567	-1436.75122				-85.54535	62.00935	-1465.51575				
64	0.630																-18.15325	1080.59290	-1459.61963																												-102.09068	421.64740	-1436.13220				-85.98698	61.73109	-1465.06116				
65	0.640																-16.75290	1080.45276	-1462.25867																												-102.51563	421.76956	-1435.92358				-85.99792	61.76974	-1465.10156				
66	0.650																-15.46312	1080.42114	-1464.71387																												-102.59955	421.83667	-1436.20605				-86.00388	61.78482	-1465.11804				
67	0.660																-15.35550	1080.54321	-1464.21033																												-102.62169	421.86319	-1436.48572				-86.02243	61.76379	-1465.10645				
68	0.670																-15.27037	1080.59692	-1463.92261																												-102.60442	421.90662	-1436.53149				-86.17229	61.88257	-1464.98071				
69	0.680																-10.26375	1079.98987	-1474.10547																												-101.59370	421.90222	-1437.16467				-86.15810	61.90518	-1464.99548				
70	0.690																-13.22142	1079.63037	-1466.36243																												-101.11144	421.73059	-1437.61328				-86.18985	61.88181	-1464.98743				
